Coordinates
version=1
nRows=11
nColumns=40
inDegrees=yes

Units are S.I. units (second, meters, Newtons, ...)
Angles are in degrees.

endheader
time	pelvis_tilt	pelvis_list	pelvis_rotation	pelvis_tx	pelvis_ty	pelvis_tz	hip_flexion_r	hip_adduction_r	hip_rotation_r	knee_angle_r	knee_angle_r_beta	ankle_angle_r	subtalar_angle_r	mtp_angle_r	hip_flexion_l	hip_adduction_l	hip_rotation_l	knee_angle_l	knee_angle_l_beta	ankle_angle_l	subtalar_angle_l	mtp_angle_l	lumbar_extension	lumbar_bending	lumbar_rotation	arm_flex_r	arm_add_r	arm_rot_r	elbow_flex_r	pro_sup_r	wrist_flex_r	wrist_dev_r	arm_flex_l	arm_add_l	arm_rot_l	elbow_flex_l	pro_sup_l	wrist_flex_l	wrist_dev_l
     24.11342857	     -3.74412935	     -4.36002520	      5.31283644	      0.86005624	      0.93198417	      0.49915005	      8.69002449	      3.09944512	    -16.95064074	     13.82605107	     13.82605107	     10.35655464	     -1.63484395	     -5.81393316	     32.86006280	     -8.29641456	      1.78326523	     40.57990648	     40.57990648	      9.68572275	    -16.65066816	      8.41200523	     -9.37744286	      5.53076722	      2.63189315	     27.19243441	    -18.59809609	     -3.61624435	     75.79955350	     45.00714841	      0.00000000	      0.00000000	     -1.75259493	     -5.92658456	     -3.76990950	     25.03458807	     46.08567523	      0.00000000	      0.00000000
     24.12685714	     -3.92747912	     -4.34178783	      5.46787355	      0.85883509	      0.93161851	      0.49921195	      8.35759811	      3.13250580	    -17.08366645	     13.56885682	     13.56885682	     10.58283012	     -1.48512089	     -5.89612380	     32.90161517	     -7.99139384	      1.54434339	     36.33997873	     36.33997873	     10.00137058	    -15.31212532	      8.69885907	     -9.30230342	      5.40260695	      2.65151579	     29.18782325	    -18.49942365	     -3.67785584	     77.40937080	     44.96841368	      0.00000000	      0.00000000	     -2.72531770	     -5.87975763	     -3.69318687	     24.58071186	     46.05313084	      0.00000000	      0.00000000
     24.14028571	     -4.07295745	     -4.36343314	      5.64685074	      0.85774517	      0.93119780	      0.49907120	      7.96566258	      3.19679207	    -17.28071429	     13.29375605	     13.29375605	     10.84572102	     -1.23915820	     -6.00843454	     32.84598178	     -7.69477292	      1.39259102	     32.22602967	     32.22602967	     10.23702233	    -13.64590905	      8.85669941	     -9.27220402	      5.37593140	      2.54944660	     31.10645994	    -18.32064919	     -3.59255664	     79.37755405	     44.91332218	      0.00000000	      0.00000000	     -3.73174390	     -5.85763621	     -3.58602970	     24.15527823	     46.01372483	      0.00000000	      0.00000000
     24.15371429	     -4.19495577	     -4.43345870	      5.85559686	      0.85679352	      0.93069243	      0.49877570	      7.54376378	      3.30386759	    -17.53344651	     13.02317062	     13.02317062	     11.10790348	     -0.95554062	     -6.12576668	     32.76510273	     -7.43463476	      1.27530723	     28.39310355	     28.39310355	     10.40376376	    -11.73501764	      8.94630558	     -9.23554672	      5.39706414	      2.43238679	     32.91413106	    -18.19911143	     -3.41653180	     81.53425812	     44.84996745	      0.00000000	      0.00000000	     -4.69252575	     -5.81289949	     -3.43949239	     23.86492629	     45.96590125	      0.00000000	      0.00000000
     24.16714286	     -4.28960379	     -4.58356081	      6.08719294	      0.85598140	      0.93009923	      0.49832879	      7.04408221	      3.49370312	    -17.93088277	     12.66460725	     12.66460725	     11.38126943	     -0.43814579	     -6.26921786	     32.75520642	     -7.27391332	      1.13382196	     25.07206694	     25.07206694	     10.41199268	     -9.64586768	      8.73454477	     -9.25841077	      5.53783232	      2.37950566	     34.44444673	    -18.31049577	     -2.96610189	     84.54627244	     44.75835604	      0.00000000	      0.00000000	     -5.67524725	     -5.78161588	     -3.05091382	     23.95749486	     45.86569879	      0.00000000	      0.00000000
     24.18057143	     -4.36499425	     -4.61265958	      6.29675903	      0.85529421	      0.92958719	      0.49770876	      6.56353809	      3.55952776	    -18.06149843	     12.42504130	     12.42504130	     11.68439154	     -0.32839317	     -6.36052547	     32.67239461	     -6.96502790	      1.02667525	     22.13309171	     22.13309171	     10.35882772	     -7.87647327	      9.03296547	     -9.20902580	      5.50882723	      2.40012229	     35.99683927	    -18.26707520	     -2.91286989	     86.37163610	     44.71236874	      0.00000000	      0.00000000	     -6.50638465	     -5.79635125	     -2.79566018	     23.86662715	     45.79842463	      0.00000000	      0.00000000
     24.19400000	     -4.43550687	     -4.67970658	      6.51165904	      0.85478773	      0.92904914	      0.49696172	      6.02725338	      3.67784393	    -18.22760639	     12.09539937	     12.09539937	     11.97295055	     -0.17055950	     -6.42633863	     32.68831728	     -6.71330755	      0.86186947	     19.85179819	     19.85179819	     10.23803616	     -6.34848667	      9.34678404	     -9.14187025	      5.51929836	      2.34181698	     37.48046214	    -18.12759426	     -2.79595424	     88.28156639	     44.66076495	      0.00000000	      0.00000000	     -7.31138628	     -5.79911777	     -2.54930120	     23.84419561	     45.73282987	      0.00000000	      0.00000000
     24.20742857	     -4.44643069	     -4.75768235	      6.76506812	      0.85441610	      0.92856548	      0.49605820	      5.34035440	      3.82727066	    -18.42962134	     11.61780565	     11.61780565	     12.22896690	      0.16557244	     -6.45512416	     32.79566676	     -6.48780006	      0.67853347	     18.34741355	     18.34741355	     10.02594508	     -5.07998139	      9.51318042	     -9.18590116	      5.55579147	      2.25676289	     38.73757508	    -18.06407811	     -2.49905717	     90.82662640	     44.58971385	      0.00000000	      0.00000000	     -8.19349370	     -5.83780185	     -2.08279108	     24.20446459	     45.61981358	      0.00000000	      0.00000000
     24.22085714	     -4.47100140	     -4.82439931	      6.96132463	      0.85434403	      0.92801669	      0.49504212	      4.68753966	      3.95942885	    -18.58610744	     11.22188807	     11.22188807	     12.53865307	      0.32744420	     -6.46612600	     32.90555691	     -6.27178032	      0.40895174	     17.39373324	     17.39373324	      9.72946166	     -4.47083976	      9.56557009	     -9.04721401	      5.59072826	      2.28009821	     39.88880350	    -18.05380749	     -2.36917595	     92.78088595	     44.54307664	      0.00000000	      0.00000000	     -8.92233664	     -5.91957727	     -1.60981500	     24.54621871	     45.51280329	      0.00000000	      0.00000000
     24.23428571	     -4.51811386	     -4.91457075	      7.15070632	      0.85435000	      0.92739067	      0.49393947	      4.04743344	      4.11690776	    -18.70000388	     10.80343230	     10.80343230	     12.84070200	      0.53806231	     -6.44403845	     33.11375096	     -6.08866548	      0.24276550	     17.08298458	     17.08298458	      9.24446479	     -4.27757906	      9.35637429	     -8.92961042	      5.61459808	      2.40939215	     40.89433066	    -18.10217964	     -2.23469472	     94.65471558	     44.50275531	      0.00000000	      0.00000000	     -9.60426781	     -6.00997321	     -1.02019663	     25.01880245	     45.38865371	      0.00000000	      0.00000000
     24.24771429	     -4.57031065	     -4.93300820	      7.25788816	      0.85457286	      0.92667105	      0.49282400	      3.46290823	      4.17396658	    -18.68985230	     10.53744149	     10.53744149	     13.17861904	      0.62031576	     -6.46405967	     33.28207747	     -5.90616200	      0.00648232	     17.25164114	     17.25164114	      8.80518700	     -4.43663455	      9.35223435	     -8.73651173	      5.51284407	      2.56078273	     42.06606349	    -18.05448472	     -2.28171027	     95.60129602	     44.48333217	      0.00000000	      0.00000000	    -10.09306304	     -6.04476379	     -0.89547220	     24.98184650	     45.35727813	      0.00000000	      0.00000000
